<svg xmlns="http://www.w3.org/2000/svg" viewBox="0 0 643.5 356.48"><defs><style>.a{fill:#3a7daa;}.b{fill:#21d695;}.c{fill:#919191;}</style></defs><title>bike</title><circle cx="87.25" cy="269.23" r="87.25"/><circle cx="556.25" cy="269.23" r="87.25"/><path class="a" d="M556,370.34,519.81,324a13.61,13.61,0,0,1,1.62-18.49h0A13.6,13.6,0,0,1,541,307l88.35,107.4a13.6,13.6,0,0,0,6.2,4.27,76.42,76.42,0,0,1,19.24,10.05l7,4.88a15.55,15.55,0,0,0,10.4,2.7l39.17-3.92a15.47,15.47,0,0,0,10.88-6.15l1.36-1.81a87.35,87.35,0,0,1,17.65-17.12,13.57,13.57,0,0,0,5-7.56l4-16.09A13.61,13.61,0,0,1,764,373.33L933,378.48a13.6,13.6,0,0,1,12.76,17l-6.6,25.86a13.63,13.63,0,0,1-5.1,7.58l-48,35.45a13.61,13.61,0,0,0-1.26,20.84l62.69,59.17c8.11,7.65,10,20.07,4,29.44a22.91,22.91,0,0,1-32.79,6.11l-84.07-61.41a13.6,13.6,0,0,0-19.43,3.59l-23.37,36A13.59,13.59,0,0,1,781,564.31l-141.83,6.37a13.59,13.59,0,0,1-11.48-5.41l-57-75.75a13.59,13.59,0,0,0-22.27.76l-57.19,87.88a25.08,25.08,0,0,1-35.5,6.79h0a25.07,25.07,0,0,1-6.51-34.18L556.68,386.14A13.59,13.59,0,0,0,556,370.34Z" transform="translate(-381.5 -302.02)"/><rect class="b" x="735" y="347" width="225" height="62" rx="20.6" transform="translate(-400.25 -256.81) rotate(-3.02)"/><path class="c" d="M521.47,352.33h18a8,8,0,0,1,8,8v63.53a8,8,0,0,1-8,8h-18a39.76,39.76,0,0,1-39.76-39.76v0a39.76,39.76,0,0,1,39.76-39.76Z" transform="translate(647.66 482.16) rotate(-180)"/></svg>