<svg xmlns="http://www.w3.org/2000/svg" viewBox="0 0 1065.23 527"><defs><style>.a{fill:#1eba3f;stroke:#fff;stroke-miterlimit:10;}.b{fill:#3082c6;}.c{fill:#0b68a8;}</style></defs><title>suv</title><path class="a" d="M116,565V442.36A97.36,97.36,0,0,1,213.36,345h39.28A97.36,97.36,0,0,0,350,247.64V223.36A97.36,97.36,0,0,1,447.36,126l492.34.34c133,.09,240.68,108,240.53,241L1180,565h-55.12c1.69-56.91-44.74-104.59-101.38-104.5S920.75,508.21,922.44,565H370.49c1.65-57.4-44.26-105.29-100-106.5C213.13,457.26,164.36,505.89,166,565ZM699.5,168.5h-298l-3,363h298Z" transform="translate(-115.5 -125.5)"/><path class="b" d="M832.21,54.5h53.06A108.23,108.23,0,0,1,993.5,162.73v53.06a9.71,9.71,0,0,1-9.71,9.71H832.21a9.71,9.71,0,0,1-9.71-9.71V64.21A9.71,9.71,0,0,1,832.21,54.5Z"/><circle cx="153.25" cy="438.75" r="87.25"/><path class="c" d="M574,492.5H459.23a12.73,12.73,0,0,1-12.73-12.73V454.23a12.73,12.73,0,0,1,12.73-12.73H578.46a10.46,10.46,0,0,0,10.34-8.89L618,239.23a10.46,10.46,0,0,1,11.89-8.78l29.8,4.48a10.47,10.47,0,0,1,8.79,11.86L640.19,439.21a42.9,42.9,0,0,1-17.84,28.89l-23.83,16.66A42.85,42.85,0,0,1,574,492.5Z" transform="translate(-115.5 -125.5)"/><circle cx="909.25" cy="439.75" r="87.25"/><rect class="b" x="615.5" y="54.5" width="171" height="171" rx="8.15"/></svg>