<svg xmlns="http://www.w3.org/2000/svg" viewBox="0 0 1065 566"><defs><style>.a{fill:#1eba3f;stroke:#fff;stroke-miterlimit:10;}.b{fill:#0b68a8;}</style></defs><title>truck</title><path class="a" d="M115.5,563.53V446.83A100.33,100.33,0,0,1,215.83,346.5h33.34A100.33,100.33,0,0,0,349.5,246.17V227.83A100.33,100.33,0,0,1,449.83,127.5H652.28a18.22,18.22,0,0,1,18.22,18.22V328.28a18.22,18.22,0,0,0,18.22,18.22h476.33A14.45,14.45,0,0,1,1179.5,361V563.53a3,3,0,0,1-3,3h-49.28a3,3,0,0,1-3-2.87c-2.64-67.6-59.78-121-125.8-119.13C935,446.27,882.05,498.63,879.58,563.67a3,3,0,0,1-3,2.83l-241.36-.25L403.58,566a3,3,0,0,1-2.93-2.56c-9.18-61.32-63.4-105.83-123.15-102.94-55.86,2.7-103.43,46.17-111.63,103.42a3,3,0,0,1-2.94,2.58H118.47A3,3,0,0,1,115.5,563.53ZM629,169.5H383.47L381,478H626.53Z" transform="translate(-115 -127)"/><circle cx="166.5" cy="455.5" r="110.5"/><path class="b" d="M521.45,455H406.73A12.73,12.73,0,0,1,394,442.27V416.73A12.73,12.73,0,0,1,406.73,404H526a10.46,10.46,0,0,0,10.34-8.89l29.19-193.38A10.46,10.46,0,0,1,577.38,193l29.8,4.48A10.47,10.47,0,0,1,616,209.29L587.69,401.71a42.9,42.9,0,0,1-17.84,28.89L546,447.26A42.85,42.85,0,0,1,521.45,455Z" transform="translate(-115 -127)"/><circle cx="885.5" cy="439.5" r="110.5"/></svg>