<svg xmlns="http://www.w3.org/2000/svg" viewBox="0 0 1065.23 526.66"><defs><style>.a{fill:#1eba3f;stroke:#fff;stroke-miterlimit:10;}.b{fill:#0b68a8;}.c{fill:#3082c6;}</style></defs><title>van</title><path class="a" d="M116,565l.23-197.67c.15-133.06,108-240.85,241.1-240.88l582.37-.11c133,.09,240.68,108,240.53,241L1180,565h-55a.07.07,0,0,1-.07-.08c1.64-56.87-44.77-104.51-101.39-104.42S920.76,508.2,922.44,565l0,0H370.68a.18.18,0,0,1-.18-.19c1.54-57.32-44.33-105.1-100-106.31C213.13,457.26,164.36,505.89,166,565ZM699.5,168.5h-298l-3,363h298Z" transform="translate(-115.5 -125.84)"/><path class="b" d="M574,492.5H459.23a12.73,12.73,0,0,1-12.73-12.73V454.23a12.73,12.73,0,0,1,12.73-12.73H578.46a10.46,10.46,0,0,0,10.34-8.89L618,239.23a10.46,10.46,0,0,1,11.89-8.78l29.8,4.48a10.47,10.47,0,0,1,8.79,11.86L640.19,439.21a42.9,42.9,0,0,1-17.84,28.89l-23.83,16.66A42.85,42.85,0,0,1,574,492.5Z" transform="translate(-115.5 -125.84)"/><circle cx="153.25" cy="438.41" r="87.25"/><circle cx="909.25" cy="439.41" r="87.25"/><path class="c" d="M832.21,54.16h53.06A108.23,108.23,0,0,1,993.5,162.39v53.06a9.71,9.71,0,0,1-9.71,9.71H832.21a9.71,9.71,0,0,1-9.71-9.71V63.87A9.71,9.71,0,0,1,832.21,54.16Z"/><rect class="c" x="615.5" y="54.16" width="171" height="171" rx="8.15"/><path class="c" d="M200.71,180H352.29a9.71,9.71,0,0,1,9.71,9.71v53.06A108.23,108.23,0,0,1,253.77,351H200.71a9.71,9.71,0,0,1-9.71-9.71V189.71A9.71,9.71,0,0,1,200.71,180Z" transform="translate(437.5 405.16) rotate(-180)"/></svg>